name C:\Users\tom_v\MusculoskeletalSpecialization_revisited\Results\Case_11\motion.mot
version=1
nRows=4
nColumns=124
inDegrees=yes
endheader
time	pelvis_tilt	pelvis_list	pelvis_rotation	pelvis_tx	pelvis_ty	pelvis_tz	hip_flexion_r	hip_adduction_r	hip_rotation_r	knee_angle_r	ankle_angle_r	subtalar_angle_r	mtp_angle_r	hip_flexion_l	hip_adduction_l	hip_rotation_l	knee_angle_l	ankle_angle_l	subtalar_angle_l	mtp_angle_l	lumbar_extension	lumbar_bending	lumbar_rotation	arm_flex_r	arm_add_r	arm_rot_r	elbow_flex_r	arm_flex_l	arm_add_l	arm_rot_l	elbow_flex_l	glut_med1_r	glut_med2_r	glut_med3_r	glut_min1_r	glut_min2_r	glut_min3_r	semimem_r	semiten_r	bifemlh_r	bifemsh_r	sar_r	add_long_r	add_brev_r	add_mag1_r	add_mag2_r	add_mag3_r	tfl_r	pect_r	grac_r	glut_max1_r	glut_max2_r	glut_max3_r	iliacus_r	psoas_r	quad_fem_r	gem_r	peri_r	rect_fem_r	vas_med_r	vas_int_r	vas_lat_r	med_gas_r	lat_gas_r	soleus_r	tib_post_r	flex_dig_r	flex_hal_r	tib_ant_r	per_brev_r	per_long_r	per_tert_r	ext_dig_r	ext_hal_r	glut_med1_l	glut_med2_l	glut_med3_l	glut_min1_l	glut_min2_l	glut_min3_l	semimem_l	semiten_l	bifemlh_l	bifemsh_l	sar_l	add_long_l	add_brev_l	add_mag1_l	add_mag2_l	add_mag3_l	tfl_l	pect_l	grac_l	glut_max1_l	glut_max2_l	glut_max3_l	iliacus_l	psoas_l	quad_fem_l	gem_l	peri_l	rect_fem_l	vas_med_l	vas_int_l	vas_lat_l	med_gas_l	lat_gas_l	soleus_l	tib_post_l	flex_dig_l	flex_hal_l	tib_ant_l	per_brev_l	per_long_l	per_tert_l	ext_dig_l	ext_hal_l	ercspn_r	ercspn_l	intobl_r	intobl_l	extobl_r	extobl_l	
          0.00000000	         -5.65001545	         -5.70453840	          5.21716170	          0.00000000	          0.96408407	          0.00379200	         28.28921181	          5.19243171	         -7.78131828	         -8.93699971	          9.66029584	         -1.00203157	         -1.28330154	         11.25304221	        -12.83557981	         -5.79923850	        -62.55737327	         -6.18145421	          6.91339759	          3.33676381	        -13.18728370	          8.73819894	        -13.24390015	          9.70796254	         -8.31018678	         -7.24106941	          1.71707725	          5.30519974	        -27.92653294	         14.16889847	         72.26907069	          0.76061973	          0.81821804	          0.67584984	          0.76029284	          0.58498059	          0.68426678	          0.99978647	          0.99962144	          0.99976402	          0.70699650	          0.07461948	          0.09234807	          0.32270728	          0.33505355	          0.62937742	          0.79431715	          0.05024222	          0.08574875	          0.99834017	          0.99863555	          0.99939153	          0.84213871	          0.05496728	          0.05495680	          0.43173300	          0.42378736	          0.81005250	          0.05924568	          0.14551784	          0.14231581	          0.13509490	          0.81826787	          0.81823377	          0.68453570	          0.98220424	          0.87105236	          0.75997237	          0.26806368	          0.69258099	          0.62083585	          0.44457807	          0.63583933	          0.43454075	          0.05006885	          0.05008620	          0.05011480	          0.05029391	          0.05037499	          0.05080891	          0.08224626	          0.07459370	          0.05932077	          0.99976673	          0.99973042	          0.99937415	          0.79461479	          0.50198034	          0.07199732	          0.05006562	          0.99961366	          0.99824884	          0.99892795	          0.05353370	          0.05012613	          0.05004974	          0.99985009	          0.99984781	          0.99797129	          0.99692202	          0.09345801	          0.99978088	          0.05003787	          0.05003259	          0.05002476	          0.96415900	          0.98627107	          0.11779041	          0.09920543	          0.09675917	          0.10210233	          0.99912084	          0.09787014	          0.09607725	          0.99693865	          0.99882484	          0.99697304	          0.51098272	          0.99715123	          0.08663269	          0.99551969	          0.10842089	          0.05831870	
          0.00476153	         -6.17187971	         -5.03574601	          3.27484241	          0.03988704	          0.96157375	          0.00275208	         26.62685978	          4.91387562	         -7.35181772	         -7.57067879	          6.39305947	          0.26573273	         -1.54288498	         12.80235711	        -11.36237983	         -5.72847191	        -63.50546945	         -4.64508399	          7.41871680	         -1.65562833	        -12.32093887	          8.21229774	        -10.27480723	         13.45106978	        -10.11508876	         -7.53380766	          0.42425955	          8.70742989	        -23.23111820	         18.16775392	         56.22333526	          0.81827955	          0.86199815	          0.67192893	          0.81799026	          0.68490432	          0.76028727	          0.99980625	          0.99967590	          0.99978693	          0.77757376	          0.06914890	          0.08556814	          0.29898528	          0.31042658	          0.58312048	          0.73593204	          0.05015222	          0.07952388	          0.99857646	          0.99877015	          0.99944002	          0.78023909	          0.05094797	          0.05093943	          0.40000023	          0.39265162	          0.85574448	          0.05489711	          0.13482204	          0.13185532	          0.12516450	          0.86204927	          0.86201648	          0.76053671	          0.98646576	          0.90187014	          0.81762811	          0.24836346	          0.67527753	          0.57633729	          0.41213150	          0.71242824	          0.40263827	          0.05005393	          0.05006822	          0.05009085	          0.05024245	          0.05033762	          0.05033311	          0.07642249	          0.06911962	          0.05497178	          0.99979687	          0.99974384	          0.99931068	          0.73632788	          0.46509570	          0.06671830	          0.05004657	          0.99962830	          0.99802743	          0.99885201	          0.05032192	          0.05007896	          0.05003471	          0.99984429	          0.99984226	          0.99763787	          0.99723835	          0.08661907	          0.99979046	          0.05002774	          0.05002400	          0.05001822	          0.89422902	          0.97443147	          0.10913123	          0.09194350	          0.09084955	          0.09472249	          0.99921590	          0.09074698	          0.08903003	          0.99699118	          0.99887382	          0.99701212	          0.47341618	          0.99783370	          0.08026582	          0.99647908	          0.10045185	          0.05403733	
          0.00952305	         -6.64317524	         -4.24500748	          1.50096292	          0.07980276	          0.95856926	          0.00145313	         24.92534982	          4.35404233	         -6.85138822	         -6.33613766	          3.32637285	          1.14258224	         -1.02734495	         14.50342662	         -9.82387322	         -5.54936686	        -64.47795573	         -4.22152269	          7.59121354	         -4.05743261	        -11.46193051	          7.62242736	         -7.61337494	         17.07169366	        -12.22312297	         -7.89450734	          0.02376075	         11.74578681	        -17.73341796	         19.39715873	         38.66005229	          0.86204599	          0.89523278	          0.62531372	          0.86179254	          0.76076426	          0.81800230	          0.99981520	          0.99971253	          0.99980049	          0.83114989	          0.06408398	          0.07928572	          0.27700679	          0.28760940	          0.54026115	          0.68183482	          0.05026502	          0.07375189	          0.99870717	          0.99890381	          0.99948897	          0.72288504	          0.05004979	          0.05005120	          0.37059997	          0.36380526	          0.89043627	          0.05087463	          0.12491239	          0.12216370	          0.11596406	          0.89528301	          0.89525268	          0.81822844	          0.98970709	          0.92533599	          0.86144615	          0.23010832	          0.62575751	          0.53408043	          0.38202630	          0.66009541	          0.37306406	          0.05006053	          0.05007895	          0.05010944	          0.05028259	          0.05044548	          0.05048840	          0.07107007	          0.06405011	          0.05095615	          0.99981695	          0.99975055	          0.99930406	          0.68241102	          0.43092473	          0.06183064	          0.05004422	          0.99962439	          0.99784756	          0.99881566	          0.05023825	          0.05007186	          0.05003332	          0.99983717	          0.99983537	          0.99719157	          0.99738680	          0.08027971	          0.99978684	          0.05002818	          0.05002451	          0.05001860	          0.82870246	          0.90394055	          0.10110878	          0.08523233	          0.08682221	          0.08792234	          0.99928802	          0.08414333	          0.08250066	          0.99704663	          0.99889924	          0.99705850	          0.43861113	          0.99835198	          0.07436740	          0.99726472	          0.09306867	          0.05008427	
          0.01428458	         -7.06758173	         -3.33637269	         -0.10377035	          0.11971466	          0.95490831	          0.00010404	         23.22802355	          3.54830852	         -6.36886898	         -5.24970729	         -0.07224400	          1.04885973	          3.95675091	         16.35271837	         -8.25862122	         -5.30147546	        -65.52889039	         -4.30645691	          7.88982813	         -1.31308708	        -10.62915233	          6.92892059	         -5.26349759	         20.23680993	        -14.46151902	         -9.54909212	          1.61863847	         14.27198886	        -12.34686123	         17.69724633	         21.34250831	          0.89526468	          0.92046226	          0.59855272	          0.89504039	          0.81835168	          0.86181956	          0.99981457	          0.99973287	          0.99980620	          0.87181977	          0.05939864	          0.07346434	          0.25664372	          0.26646905	          0.50055049	          0.63171215	          0.27895613	          0.06840136	          0.99865035	          0.99904414	          0.99954376	          0.66974476	          0.05006125	          0.05006163	          0.34336165	          0.33708174	          0.91677337	          0.05003128	          0.11573114	          0.11318444	          0.10743992	          0.92051019	          0.92048282	          0.86202142	          0.99217239	          0.94319867	          0.89474203	          0.21319416	          0.57978769	          0.49485865	          0.35398039	          0.61157613	          0.34565602	          0.05006557	          0.05008720	          0.05012502	          0.05031712	          0.05058426	          0.05066185	          0.06617835	          0.05935727	          0.05005581	          0.99982924	          0.99975051	          0.99935722	          0.65995979	          0.39926958	          0.05730967	          0.05004035	          0.99959053	          0.99780926	          0.99884801	          0.05019672	          0.05006330	          0.05003111	          0.99983043	          0.99982813	          0.99672655	          0.99734534	          0.07440218	          0.99976993	          0.05002731	          0.05002387	          0.05001808	          0.76789903	          0.83791157	          0.09367623	          0.07906395	          0.08829015	          0.08167214	          0.99933957	          0.07802089	          0.07645116	          0.99705422	          0.99889658	          0.99708430	          0.40636467	          0.99874576	          0.06890313	          0.99788978	          0.08622830	          0.05002356	
